<svg width="30" height="30" viewBox="0 0 30 30" fill="none" xmlns="http://www.w3.org/2000/svg">
<mask id="mask0_389_49" style="mask-type:alpha" maskUnits="userSpaceOnUse" x="0" y="0" width="30" height="30">
<rect width="30" height="30" fill="#D9D9D9"/>
</mask>
<g mask="url(#mask0_389_49)">
<path d="M6.25 25C5.5625 25 4.97396 24.7552 4.48438 24.2656C3.99479 23.776 3.75 23.1875 3.75 22.5V21.5C3.75 20.7917 3.93229 20.1406 4.29688 19.5469C4.66146 18.9531 5.14583 18.5 5.75 18.1875C7.04167 17.5417 8.35417 17.0573 9.6875 16.7344C11.0208 16.4115 12.375 16.25 13.75 16.25C14.1667 16.25 14.5833 16.2656 15 16.2969C15.4167 16.3281 15.8333 16.375 16.25 16.4375C16.1667 17.6458 16.3854 18.7865 16.9063 19.8594C17.4271 20.9323 18.1875 21.8125 19.1875 22.5V25H6.25ZM13.75 15C12.375 15 11.1979 14.5104 10.2188 13.5313C9.23958 12.5521 8.75 11.375 8.75 10C8.75 8.625 9.23958 7.44792 10.2188 6.46875C11.1979 5.48958 12.375 5 13.75 5C15.125 5 16.3021 5.48958 17.2812 6.46875C18.2604 7.44792 18.75 8.625 18.75 10C18.75 11.375 18.2604 12.5521 17.2812 13.5313C16.3021 14.5104 15.125 15 13.75 15ZM23.125 17.5C23.4792 17.5 23.776 17.3802 24.0156 17.1406C24.2552 16.901 24.375 16.6042 24.375 16.25C24.375 15.8958 24.2552 15.599 24.0156 15.3594C23.776 15.1198 23.4792 15 23.125 15C22.7708 15 22.474 15.1198 22.2344 15.3594C21.9948 15.599 21.875 15.8958 21.875 16.25C21.875 16.6042 21.9948 16.901 22.2344 17.1406C22.474 17.3802 22.7708 17.5 23.125 17.5ZM23.3125 28.3125L22.0625 27.0625C22.0208 27.0208 21.9583 26.875 21.875 26.625V21.0625C20.9583 20.7917 20.2083 20.276 19.625 19.5156C19.0417 18.7552 18.75 17.875 18.75 16.875C18.75 15.6667 19.1771 14.6354 20.0312 13.7813C20.8854 12.9271 21.9167 12.5 23.125 12.5C24.3333 12.5 25.3646 12.9271 26.2188 13.7813C27.0729 14.6354 27.5 15.6667 27.5 16.875C27.5 17.8125 27.2344 18.6458 26.7031 19.375C26.1719 20.1042 25.5 20.625 24.6875 20.9375L25.8125 22.0625C25.9375 22.1875 26 22.3333 26 22.5C26 22.6667 25.9375 22.8125 25.8125 22.9375L24.8125 23.9375C24.6875 24.0625 24.625 24.2083 24.625 24.375C24.625 24.5417 24.6875 24.6875 24.8125 24.8125L25.8125 25.8125C25.9375 25.9375 26 26.0833 26 26.25C26 26.4167 25.9375 26.5625 25.8125 26.6875L24.1875 28.3125C24.0625 28.4375 23.9167 28.5 23.75 28.5C23.5833 28.5 23.4375 28.4375 23.3125 28.3125Z" fill="#1C1B1F"/>
</g>
</svg>
