<svg width="30" height="30" viewBox="0 0 30 30" fill="none" xmlns="http://www.w3.org/2000/svg">
<mask id="mask0_389_52" style="mask-type:alpha" maskUnits="userSpaceOnUse" x="0" y="0" width="31" height="30">
<rect x="0.00537109" width="30" height="30" fill="#D9D9D9"/>
</mask>
<g mask="url(#mask0_389_52)">
<path d="M15 11C13.625 11 12.4479 10.5104 11.4688 9.53125C10.4896 8.55208 10 7.375 10 6C10 4.625 10.4896 3.44792 11.4688 2.46875C12.4479 1.48958 13.625 1 15 1C16.375 1 17.5521 1.48958 18.5312 2.46875C19.5104 3.44792 20 4.625 20 6C20 7.375 19.5104 8.55208 18.5312 9.53125C17.5521 10.5104 16.375 11 15 11ZM5 18.5V17.5C5 16.7917 5.18229 16.1406 5.54688 15.5469C5.91146 14.9531 6.39583 14.5 7 14.1875C8.29167 13.5417 9.60417 13.0573 10.9375 12.7344C12.2708 12.4115 13.625 12.25 15 12.25C16.375 12.25 17.7292 12.4115 19.0625 12.7344C20.3958 13.0573 21.7083 13.5417 23 14.1875C23.6042 14.5 24.0885 14.9531 24.4531 15.5469C24.8177 16.1406 25 16.7917 25 17.5V18.5C25 19.1875 24.7552 19.776 24.2656 20.2656C23.776 20.7552 23.1875 21 22.5 21H7.5C6.8125 21 6.22396 20.7552 5.73438 20.2656C5.24479 19.776 5 19.1875 5 18.5ZM7.5 18.5H22.5V17.5C22.5 17.2708 22.4427 17.0625 22.3281 16.875C22.2135 16.6875 22.0625 16.5417 21.875 16.4375C20.75 15.875 19.6146 15.4531 18.4688 15.1719C17.3229 14.8906 16.1667 14.75 15 14.75C13.8333 14.75 12.6771 14.8906 11.5312 15.1719C10.3854 15.4531 9.25 15.875 8.125 16.4375C7.9375 16.5417 7.78646 16.6875 7.67188 16.875C7.55729 17.0625 7.5 17.2708 7.5 17.5V18.5ZM15 8.5C15.6875 8.5 16.276 8.25521 16.7656 7.76562C17.2552 7.27604 17.5 6.6875 17.5 6C17.5 5.3125 17.2552 4.72396 16.7656 4.23438C16.276 3.74479 15.6875 3.5 15 3.5C14.3125 3.5 13.724 3.74479 13.2344 4.23438C12.7448 4.72396 12.5 5.3125 12.5 6C12.5 6.6875 12.7448 7.27604 13.2344 7.76562C13.724 8.25521 14.3125 8.5 15 8.5Z" fill="#1C1B1F"/>
</g>
</svg>
